<svg width="21" height="18" viewBox="0 0 21 18" fill="none" xmlns="http://www.w3.org/2000/svg">
    <path d="M14.7969 0C13.0223 0 11.4685 0.8325 10.5 2.23969C9.53148 0.8325 7.97773 0 6.20312 0C4.79051 0.00173694 3.4362 0.614681 2.43733 1.70436C1.43846 2.79404 0.876592 4.27146 0.875 5.8125C0.875 12.375 9.79445 17.6869 10.1743 17.9062C10.2744 17.965 10.3863 17.9958 10.5 17.9958C10.6137 17.9958 10.7256 17.965 10.8257 17.9062C11.2055 17.6869 20.125 12.375 20.125 5.8125C20.1234 4.27146 19.5615 2.79404 18.5627 1.70436C17.5638 0.614681 16.2095 0.00173694 14.7969 0ZM10.5 16.3875C8.93078 15.39 2.25 10.8459 2.25 5.8125C2.25136 4.66921 2.66829 3.57317 3.40935 2.76475C4.15041 1.95632 5.15511 1.50149 6.20312 1.5C7.87461 1.5 9.27797 2.47125 9.86406 4.03125C9.91586 4.16881 10.004 4.28646 10.1172 4.36926C10.2304 4.45206 10.3637 4.49627 10.5 4.49627C10.6363 4.49627 10.7696 4.45206 10.8828 4.36926C10.996 4.28646 11.0841 4.16881 11.1359 4.03125C11.722 2.46844 13.1254 1.5 14.7969 1.5C15.8449 1.50149 16.8496 1.95632 17.5907 2.76475C18.3317 3.57317 18.7486 4.66921 18.75 5.8125C18.75 10.8384 12.0675 15.3891 10.5 16.3875Z" fill="white"/>
</svg>

