<svg width="28" height="27" viewBox="0 0 28 27" fill="none" xmlns="http://www.w3.org/2000/svg">
    <path d="M11.8535 3.32349H5.32398C5.03535 3.32349 4.75855 3.43814 4.55446 3.64223C4.35037 3.84632 4.23572 4.12312 4.23572 4.41174V10.9413C4.23572 11.2299 4.35037 11.5067 4.55446 11.7108C4.75855 11.9149 5.03535 12.0296 5.32398 12.0296H11.8535C12.1422 12.0296 12.419 11.9149 12.623 11.7108C12.8271 11.5067 12.9418 11.2299 12.9418 10.9413V4.41174C12.9418 4.12312 12.8271 3.84632 12.623 3.64223C12.419 3.43814 12.1422 3.32349 11.8535 3.32349ZM10.7653 9.85304H6.41223V5.5H10.7653V9.85304ZM22.7361 14.2061H16.2066C15.9179 14.2061 15.6411 14.3207 15.437 14.5248C15.233 14.7289 15.1183 15.0057 15.1183 15.2943V21.8239C15.1183 22.1125 15.233 22.3893 15.437 22.5934C15.6411 22.7975 15.9179 22.9121 16.2066 22.9121H22.7361C23.0247 22.9121 23.3015 22.7975 23.5056 22.5934C23.7097 22.3893 23.8244 22.1125 23.8244 21.8239V15.2943C23.8244 15.0057 23.7097 14.7289 23.5056 14.5248C23.3015 14.3207 23.0247 14.2061 22.7361 14.2061ZM21.6479 20.7356H17.2948V16.3826H21.6479V20.7356ZM19.4713 3.32349C17.0706 3.32349 15.1183 5.27582 15.1183 7.67652C15.1183 10.0772 17.0706 12.0296 19.4713 12.0296C21.872 12.0296 23.8244 10.0772 23.8244 7.67652C23.8244 5.27582 21.872 3.32349 19.4713 3.32349ZM19.4713 9.85304C18.271 9.85304 17.2948 8.87687 17.2948 7.67652C17.2948 6.47617 18.271 5.5 19.4713 5.5C20.6717 5.5 21.6479 6.47617 21.6479 7.67652C21.6479 8.87687 20.6717 9.85304 19.4713 9.85304ZM8.58875 14.2061C6.18805 14.2061 4.23572 16.1584 4.23572 18.5591C4.23572 20.9598 6.18805 22.9121 8.58875 22.9121C10.9894 22.9121 12.9418 20.9598 12.9418 18.5591C12.9418 16.1584 10.9894 14.2061 8.58875 14.2061ZM8.58875 20.7356C7.3884 20.7356 6.41223 19.7595 6.41223 18.5591C6.41223 17.3588 7.3884 16.3826 8.58875 16.3826C9.7891 16.3826 10.7653 17.3588 10.7653 18.5591C10.7653 19.7595 9.7891 20.7356 8.58875 20.7356Z" fill="white"/>
</svg>

