<svg width="19" height="20" viewBox="0 0 19 20" fill="none" xmlns="http://www.w3.org/2000/svg">
    <path d="M17.0625 5H13.625C13.625 3.80653 13.1904 2.66193 12.4168 1.81802C11.6432 0.974106 10.594 0.5 9.5 0.5C8.40598 0.5 7.35677 0.974106 6.58318 1.81802C5.8096 2.66193 5.375 3.80653 5.375 5H1.9375C1.57283 5 1.22309 5.15804 0.965228 5.43934C0.707366 5.72064 0.5625 6.10218 0.5625 6.5V17.75C0.5625 18.1478 0.707366 18.5294 0.965228 18.8107C1.22309 19.092 1.57283 19.25 1.9375 19.25H17.0625C17.4272 19.25 17.7769 19.092 18.0348 18.8107C18.2926 18.5294 18.4375 18.1478 18.4375 17.75V6.5C18.4375 6.10218 18.2926 5.72064 18.0348 5.43934C17.7769 5.15804 17.4272 5 17.0625 5ZM9.5 2C10.2293 2 10.9288 2.31607 11.4445 2.87868C11.9603 3.44129 12.25 4.20435 12.25 5H6.75C6.75 4.20435 7.03973 3.44129 7.55546 2.87868C8.07118 2.31607 8.77065 2 9.5 2ZM17.0625 17.75H1.9375V6.5H5.375V8C5.375 8.19891 5.44743 8.38968 5.57636 8.53033C5.7053 8.67098 5.88016 8.75 6.0625 8.75C6.24484 8.75 6.4197 8.67098 6.54864 8.53033C6.67757 8.38968 6.75 8.19891 6.75 8V6.5H12.25V8C12.25 8.19891 12.3224 8.38968 12.4514 8.53033C12.5803 8.67098 12.7552 8.75 12.9375 8.75C13.1198 8.75 13.2947 8.67098 13.4236 8.53033C13.5526 8.38968 13.625 8.19891 13.625 8V6.5H17.0625V17.75Z" fill="white"/>
</svg>
